<svg width="48" height="48" viewBox="0 0 48 48" fill="none" xmlns="http://www.w3.org/2000/svg">
<mask id="path-1-inside-1_8_92" fill="white">
<path d="M0 0H48V48H0V0Z"/>
</mask>
<path d="M0 0H48V48H0V0Z" fill="#ACF847"/>
<path d="M0 0V-1.33333H-1.33333V0H0ZM48 0H49.3333V-1.33333H48V0ZM48 48V49.3333H49.3333V48H48ZM0 48H-1.33333V49.3333H0V48ZM0 0V1.33333H48V0V-1.33333H0V0ZM48 0H46.6667V48H48H49.3333V0H48ZM48 48V46.6667H0V48V49.3333H48V48ZM0 48H1.33333V0H0H-1.33333V48H0Z" fill="#1C1B1B" mask="url(#path-1-inside-1_8_92)"/>
<path d="M32.0156 15.9844C32.5469 15.9844 33 16.1875 33.375 16.5938C33.7812 16.9688 33.9844 17.4375 33.9844 18V30C33.9844 30.5625 33.7812 31.0469 33.375 31.4531C33 31.8281 32.5469 32.0156 32.0156 32.0156H15.9844C15.4531 32.0156 14.9844 31.8281 14.5781 31.4531C14.2031 31.0469 14.0156 30.5625 14.0156 30V18C14.0156 17.4375 14.2031 16.9688 14.5781 16.5938C14.9844 16.1875 15.4531 15.9844 15.9844 15.9844H32.0156ZM32.0156 30V20.0156H15.9844V30H32.0156ZM30 29.0156V27H24V29.0156H30ZM19.5 29.0156L23.4844 24.9844L19.5 21L18.0938 22.4062L20.6719 24.9844L18.0938 27.6094L19.5 29.0156Z" fill="#1C1B1B"/>
</svg>
